<svg aria-roledescription="gitGraph" role="graphics-document document" viewBox="-112.58332824707031 -19 920.5833129882812 309" height="100%" xmlns="http://www.w3.org/2000/svg" width="920.5833129882812" id="graph-div" style="max-width: 100%;" xmlns:xlink="http://www.w3.org/1999/xlink"><style>@import url("https://cdnjs.cloudflare.com/ajax/libs/font-awesome/6.2.1/css/all.min.css");'</style><style>#graph-div{font-family:"trebuchet ms",verdana,arial,sans-serif;font-size:16px;fill:#333;}#graph-div .error-icon{fill:hsl(220.5882352941, 100%, 98.3333333333%);}#graph-div .error-text{fill:rgb(8.5000000002, 5.7500000001, 0);stroke:rgb(8.5000000002, 5.7500000001, 0);}#graph-div .edge-thickness-normal{stroke-width:2px;}#graph-div .edge-thickness-thick{stroke-width:3.5px;}#graph-div .edge-pattern-solid{stroke-dasharray:0;}#graph-div .edge-pattern-dashed{stroke-dasharray:3;}#graph-div .edge-pattern-dotted{stroke-dasharray:2;}#graph-div .marker{fill:#0b0b0b;stroke:#0b0b0b;}#graph-div .marker.cross{stroke:#0b0b0b;}#graph-div svg{font-family:"trebuchet ms",verdana,arial,sans-serif;font-size:16px;}#graph-div .commit-id,#graph-div .commit-msg,#graph-div .branch-label{fill:lightgrey;color:lightgrey;font-family:'trebuchet ms',verdana,arial,sans-serif;font-family:var(--mermaid-font-family);}#graph-div .branch-label0{fill:#333;}#graph-div .commit0{stroke:hsl(40.5882352941, 100%, 68.3333333333%);fill:hsl(40.5882352941, 100%, 68.3333333333%);}#graph-div .commit-highlight0{stroke:rgb(0, 52.2500000001, 161.5000000002);fill:rgb(0, 52.2500000001, 161.5000000002);}#graph-div .label0{fill:hsl(40.5882352941, 100%, 68.3333333333%);}#graph-div .arrow0{stroke:hsl(40.5882352941, 100%, 68.3333333333%);}#graph-div .branch-label1{fill:#333;}#graph-div .commit1{stroke:hsl(-79.4117647059, 100%, 68.3333333333%);fill:hsl(-79.4117647059, 100%, 68.3333333333%);}#graph-div .commit-highlight1{stroke:rgb(52.2500000001, 161.5000000002, 0);fill:rgb(52.2500000001, 161.5000000002, 0);}#graph-div .label1{fill:hsl(-79.4117647059, 100%, 68.3333333333%);}#graph-div .arrow1{stroke:hsl(-79.4117647059, 100%, 68.3333333333%);}#graph-div .branch-label2{fill:#333;}#graph-div .commit2{stroke:hsl(220.5882352941, 100%, 73.3333333333%);fill:hsl(220.5882352941, 100%, 73.3333333333%);}#graph-div .commit-highlight2{stroke:rgb(136.0000000002, 92.0000000001, 0);fill:rgb(136.0000000002, 92.0000000001, 0);}#graph-div .label2{fill:hsl(220.5882352941, 100%, 73.3333333333%);}#graph-div .arrow2{stroke:hsl(220.5882352941, 100%, 73.3333333333%);}#graph-div .branch-label3{fill:#333;}#graph-div .commit3{stroke:hsl(10.5882352941, 100%, 68.3333333333%);fill:hsl(10.5882352941, 100%, 68.3333333333%);}#graph-div .commit-highlight3{stroke:rgb(0, 133.0000000002, 161.5000000002);fill:rgb(0, 133.0000000002, 161.5000000002);}#graph-div .label3{fill:hsl(10.5882352941, 100%, 68.3333333333%);}#graph-div .arrow3{stroke:hsl(10.5882352941, 100%, 68.3333333333%);}#graph-div .branch-label4{fill:#333;}#graph-div .commit4{stroke:hsl(-19.4117647059, 100%, 68.3333333333%);fill:hsl(-19.4117647059, 100%, 68.3333333333%);}#graph-div .commit-highlight4{stroke:rgb(0, 161.5000000002, 109.2500000001);fill:rgb(0, 161.5000000002, 109.2500000001);}#graph-div .label4{fill:hsl(-19.4117647059, 100%, 68.3333333333%);}#graph-div .arrow4{stroke:hsl(-19.4117647059, 100%, 68.3333333333%);}#graph-div .branch-label5{fill:#333;}#graph-div .commit5{stroke:hsl(-49.4117647059, 100%, 68.3333333333%);fill:hsl(-49.4117647059, 100%, 68.3333333333%);}#graph-div .commit-highlight5{stroke:rgb(0, 161.5000000002, 28.5);fill:rgb(0, 161.5000000002, 28.5);}#graph-div .label5{fill:hsl(-49.4117647059, 100%, 68.3333333333%);}#graph-div .arrow5{stroke:hsl(-49.4117647059, 100%, 68.3333333333%);}#graph-div .branch-label6{fill:#333;}#graph-div .commit6{stroke:hsl(100.5882352941, 100%, 68.3333333333%);fill:hsl(100.5882352941, 100%, 68.3333333333%);}#graph-div .commit-highlight6{stroke:rgb(109.2500000001, 0, 161.5000000002);fill:rgb(109.2500000001, 0, 161.5000000002);}#graph-div .label6{fill:hsl(100.5882352941, 100%, 68.3333333333%);}#graph-div .arrow6{stroke:hsl(100.5882352941, 100%, 68.3333333333%);}#graph-div .branch-label7{fill:#333;}#graph-div .commit7{stroke:hsl(160.5882352941, 100%, 68.3333333333%);fill:hsl(160.5882352941, 100%, 68.3333333333%);}#graph-div .commit-highlight7{stroke:rgb(161.5000000002, 0, 52.2500000001);fill:rgb(161.5000000002, 0, 52.2500000001);}#graph-div .label7{fill:hsl(160.5882352941, 100%, 68.3333333333%);}#graph-div .arrow7{stroke:hsl(160.5882352941, 100%, 68.3333333333%);}#graph-div .branch{stroke-width:1;stroke:#0b0b0b;stroke-dasharray:2;}#graph-div .commit-label{font-size:10px;fill:rgb(11.0000000001, 34.0000000002, 0);}#graph-div .commit-label-bkg{font-size:10px;fill:hsl(-79.4117647059, 100%, 93.3333333333%);opacity:0.5;}#graph-div .tag-label{font-size:10px;fill:#333;}#graph-div .tag-label-bkg{fill:#fff4dd;stroke:hsl(40.5882352941, 60%, 83.3333333333%);}#graph-div .tag-hole{fill:#333;}#graph-div .commit-merge{stroke:#fff4dd;fill:#fff4dd;}#graph-div .commit-reverse{stroke:#fff4dd;fill:#fff4dd;stroke-width:3;}#graph-div .commit-highlight-inner{stroke:#fff4dd;fill:#fff4dd;}#graph-div .arrow{stroke-width:8;stroke-linecap:round;fill:none;}#graph-div .gitTitleText{text-anchor:middle;font-size:18px;fill:#333;}:root{--mermaid-font-family:"trebuchet ms",verdana,arial,sans-serif;}</style><g></g><g class="commit-bullets"></g><g class="commit-labels"></g><g><line class="branch branch0" y2="0" x2="800" y1="0" x1="0"></line><rect transform="translate(-19, -9.5)" height="23" width="52.68333435058594" y="-1.5" x="-68.68333435058594" ry="4" rx="4" class="branchLabelBkg label0"></rect><g class="branchLabel"><g transform="translate(-78.68333435058594, -10.5)" class="label branch-label0"><text><tspan class="row" x="0" dy="1em" xml:space="preserve">main</tspan></text></g></g><line class="branch branch1" y2="90" x2="800" y1="90" x1="0"></line><rect transform="translate(-19, 80.5)" height="23" width="69.58333206176758" y="-1.5" x="-85.58333206176758" ry="4" rx="4" class="branchLabelBkg label1"></rect><g class="branchLabel"><g transform="translate(-95.58333206176758, 79.5)" class="label branch-label1"><text><tspan class="row" x="0" dy="1em" xml:space="preserve">issue-3</tspan></text></g></g><line class="branch branch2" y2="180" x2="800" y1="180" x1="0"></line><rect transform="translate(-19, 170.5)" height="23" width="69.58333206176758" y="-1.5" x="-85.58333206176758" ry="4" rx="4" class="branchLabelBkg label2"></rect><g class="branchLabel"><g transform="translate(-95.58333206176758, 169.5)" class="label branch-label2"><text><tspan class="row" x="0" dy="1em" xml:space="preserve">issue-1</tspan></text></g></g><line class="branch branch3" y2="270" x2="800" y1="270" x1="0"></line><rect transform="translate(-19, 260.5)" height="23" width="69.58333206176758" y="-1.5" x="-85.58333206176758" ry="4" rx="4" class="branchLabelBkg label3"></rect><g class="branchLabel"><g transform="translate(-95.58333206176758, 259.5)" class="label branch-label3"><text><tspan class="row" x="0" dy="1em" xml:space="preserve">issue-2</tspan></text></g></g></g><g class="commit-arrows"><path class="arrow arrow0" d="M 10 0 L 10 0  10 0 L 60 0"></path><path class="arrow arrow1" d="M 60 0 L 60 70 A 20 20, 0, 0, 0, 80 90 L 110 90"></path><path class="arrow arrow2" d="M 60 0 L 60 160 A 20 20, 0, 0, 0, 80 180 L 160 180"></path><path class="arrow arrow3" d="M 60 0 L 60 250 A 20 20, 0, 0, 0, 80 270 L 210 270"></path><path class="arrow arrow3" d="M 210 270 L 210 270  210 270 L 260 270"></path><path class="arrow arrow2" d="M 160 180 L 160 180  160 180 L 310 180"></path><path class="arrow arrow2" d="M 310 180 L 310 180  310 180 L 360 180"></path><path class="arrow arrow1" d="M 110 90 L 110 90  110 90 L 410 90"></path><path class="arrow arrow3" d="M 260 270 L 260 270  260 270 L 460 270"></path><path class="arrow arrow3" d="M 460 270 L 460 270  460 270 L 510 270"></path><path class="arrow arrow0" d="M 60 0 L 60 0  60 0 L 560 0"></path><path class="arrow arrow2" d="M 360 180 L 540 180 A 20 20, 0, 0, 0, 560 160 L 560 0"></path><path class="arrow arrow0" d="M 560 0 L 560 0  560 0 L 610 0"></path><path class="arrow arrow0" d="M 510 270 L 510 145 A 10 10, 0, 0, 1, 520 135 L 600 135 A 10 10, 0, 0, 0, 610 125 L 610 0"></path><path class="arrow arrow0" d="M 610 0 L 610 0  610 0 L 660 0"></path><path class="arrow arrow0" d="M 410 90 L 410 55 A 10 10, 0, 0, 1, 420 45 L 650 45 A 10 10, 0, 0, 0, 660 35 L 660 0"></path><path class="arrow arrow0" d="M 660 0 L 660 0  660 0 L 710 0"></path><path class="arrow arrow0" d="M 710 0 L 710 0  710 0 L 760 0"></path></g><g class="commit-bullets"><circle class="commit 0-0582f09 commit0" r="10" cy="0" cx="10"></circle><circle class="commit 1-397282e commit0" r="10" cy="0" cx="60"></circle><circle class="commit 2-ba44000 commit1" r="10" cy="90" cx="110"></circle><circle class="commit 3-719f9c9 commit2" r="10" cy="180" cx="160"></circle><circle class="commit 4-176de16 commit3" r="10" cy="270" cx="210"></circle><circle class="commit 5-9bfa73b commit3" r="10" cy="270" cx="260"></circle><circle class="commit 6-b5beb91 commit2" r="10" cy="180" cx="310"></circle><circle class="commit 7-7c89c70 commit2" r="10" cy="180" cx="360"></circle><circle class="commit 8-6dde7ed commit1" r="10" cy="90" cx="410"></circle><circle class="commit 9-bafe3a3 commit3" r="10" cy="270" cx="460"></circle><circle class="commit 10-57afa9f commit3" r="10" cy="270" cx="510"></circle><circle class="commit 11-0da1c78 commit0" r="9" cy="0" cx="560"></circle><circle class="commit commit-merge 11-0da1c78 commit0" r="6" cy="0" cx="560"></circle><circle class="commit 12-80950c1 commit0" r="9" cy="0" cx="610"></circle><circle class="commit commit-merge 12-80950c1 commit0" r="6" cy="0" cx="610"></circle><circle class="commit 13-bb35994 commit0" r="9" cy="0" cx="660"></circle><circle class="commit commit-merge 13-bb35994 commit0" r="6" cy="0" cx="660"></circle><circle class="commit 14-24e575b commit0" r="10" cy="0" cx="710"></circle><circle class="commit 15-acf017b commit0" r="10" cy="0" cx="760"></circle></g><g class="commit-labels"></g></svg>